# xmcd
#
# Track frame offsets:
#	150
#	17882
#	29927
#	45650
#	59541
#	71664
#	83498
#	96315
#
# Disc length: 1478 seconds
#
# Revision: 1
# Processed by: cddbd v1.5.2PL0 Copyright (c) Steve Scherf et al.
# Submitted via: audiograbber 1.83.01
#
DISCID=6d05c408
DTITLE=Tony Wait - You´ll See Tony Wait
DYEAR=1999
DGENRE=Country
TTITLE0=In Every Way
TTITLE1=You´ll See
TTITLE2=I Know
TTITLE3=Anything Goes In A Condo
TTITLE4=Baby In L. A.
TTITLE5=Cowgirl Cute And Cowboy Crazy
TTITLE6=9 Times Out Of Ten
TTITLE7=Show Me How To Break A Broken Heart
EXTD=
EXTT0=
EXTT1=
EXTT2=
EXTT3=
EXTT4=
EXTT5=
EXTT6=
EXTT7=
PLAYORDER=
